<svg width="48" height="48" viewBox="0 0 48 48" fill="none" xmlns="http://www.w3.org/2000/svg">
<g id="Dark">
<rect width="48" height="48" rx="24" fill="#171717"/>
<path id="image 2 (Traced)" d="M20.6419 12.5962L20.642 12.5962C21.1738 12.4191 21.4348 12.5302 21.4913 12.5802C21.5065 12.5937 21.5162 12.6063 21.5156 12.6451C21.5149 12.697 21.4915 12.8106 21.371 12.9816L21.371 12.9816C19.9363 15.0193 19.371 16.675 19.3728 18.9196C19.3794 26.8933 28.4493 31.2952 34.798 26.4325L34.494 26.0356L34.798 26.4325C35.0445 26.2437 35.2304 26.1613 35.3487 26.1354C35.4061 26.1228 35.4361 26.1251 35.4488 26.1279C35.4582 26.1408 35.485 26.1868 35.4958 26.3021C35.5104 26.4584 35.489 26.6944 35.3958 27.0136C32.5793 36.654 19.856 38.5776 14.3811 30.2059C11.6736 26.0658 11.9201 20.2137 14.9179 16.5901C16.5662 14.5977 18.3427 13.3619 20.6419 12.5962ZM35.4564 26.1307C35.4563 26.1309 35.4546 26.1304 35.4519 26.1287C35.4552 26.1296 35.4566 26.1305 35.4564 26.1307Z" stroke="white"/>
</g>
</svg>
