<svg width="24" height="24" viewBox="0 0 24 24" fill="none" xmlns="http://www.w3.org/2000/svg">
<path d="M8.64195 0.596191L8.64196 0.596188C9.17383 0.419053 9.43477 0.530154 9.49125 0.580176C9.50652 0.593701 9.51618 0.606276 9.51563 0.645062C9.51491 0.696961 9.49146 0.810553 9.37103 0.981583L9.37102 0.98159C7.93626 3.01927 7.37097 4.67504 7.37281 6.91965C7.37936 14.8933 16.4493 19.2952 22.798 14.4325L22.494 14.0356L22.798 14.4325C23.0445 14.2437 23.2304 14.1613 23.3487 14.1354C23.4061 14.1228 23.4361 14.1251 23.4488 14.1279C23.4582 14.1408 23.485 14.1868 23.4958 14.3021C23.5104 14.4584 23.489 14.6944 23.3958 15.0136C20.5793 24.654 7.85599 26.5776 2.38111 18.2059C-0.326425 14.0658 -0.0798655 8.21366 2.91788 4.59012C4.56619 2.59771 6.34274 1.36188 8.64195 0.596191ZM23.4564 14.1307C23.4563 14.1309 23.4546 14.1304 23.4519 14.1287C23.4552 14.1296 23.4566 14.1305 23.4564 14.1307Z" stroke="white"/>
</svg>
