<svg width="50" height="50" viewBox="0 0 50 50" fill="none" xmlns="http://www.w3.org/2000/svg">
<g id="Frame 21358">
<rect width="50" height="50" rx="25" fill="#E0E0E0"/>
<path id="Vector" d="M32.6505 17.7803C29.6493 17.7955 27.3681 19.8816 26.5141 23.206C25.0813 20.8886 23.9635 18.2378 23.3226 16L20.1638 16.0156L20.2076 24.8153C20.2095 25.2296 20.1337 25.6402 19.9846 26.0237C19.8354 26.4072 19.6159 26.756 19.3385 27.0504C19.0611 27.3447 18.7312 27.5787 18.3677 27.7391C18.0043 27.8994 17.6143 27.983 17.2201 27.9849C16.424 27.9889 15.6591 27.6603 15.0935 27.0715C14.8134 26.78 14.5907 26.4333 14.4382 26.0513C14.2856 25.6693 14.2061 25.2595 14.2042 24.8452L14.1605 16.0455L11 16.0616L11.0437 24.8617C11.056 28.5135 13.8324 31.407 17.23 31.3886C20.6276 31.3702 23.379 28.4523 23.3637 24.7997L23.3572 23.3053C23.9942 24.6295 24.7904 26.0365 25.6654 27.278L23.7338 37L26.9713 36.9844L28.3626 29.9209C29.6296 30.7453 31.0532 31.2359 32.7113 31.2277C36.1868 31.2116 39.0174 28.21 38.9999 24.3904C38.9842 20.7369 36.1264 17.7633 32.6509 17.7799L32.6505 17.7803ZM32.6956 27.8251C31.4321 27.8311 30.1659 27.2568 29.1352 26.3478L29.4449 25.0144V24.9307C29.6759 23.5173 30.3751 21.107 32.7446 21.096C33.5819 21.0944 34.3857 21.441 34.9806 22.0603C35.5755 22.6796 35.913 23.5211 35.9195 24.401C35.8482 26.3106 34.3546 27.8127 32.6951 27.8205L32.6956 27.8251Z" fill="#171717"/>
</g>
</svg>
