<svg width="103" height="40" viewBox="0 0 103 40" fill="none" xmlns="http://www.w3.org/2000/svg">
<g clip-path="url(#clip0_5494_4847)">
<path fill-rule="evenodd" clip-rule="evenodd" d="M11.3086 14.5137L35.6982 34.0074H0.392578L11.3086 14.5137Z" fill="#171717"/>
<path fill-rule="evenodd" clip-rule="evenodd" d="M10.6689 6.13044L19.0227 0.787598C25.2088 11.8116 31.3815 22.8122 37.541 33.7895L10.6689 6.13044Z" fill="#171717"/>
<path fill-rule="evenodd" clip-rule="evenodd" d="M13.3096 10.9756L35.6982 34.0071L11.3086 14.5133L13.3096 10.9756Z" fill="#656565"/>
<path fill-rule="evenodd" clip-rule="evenodd" d="M88.0096 12.8412V22.6303H85.9264V10.7195H86.2365C89.6583 10.7195 93.0824 10.7195 96.5043 10.7195C97.9463 10.7195 99.1323 10.1323 99.9378 8.87332C100.257 8.37211 100.455 7.79983 100.516 7.20402C100.576 6.60821 100.498 6.00608 100.287 5.44766C100.076 4.88924 99.7391 4.39065 99.3034 3.99332C98.8676 3.59599 98.346 3.31139 97.7819 3.16317C97.3502 3.04624 96.906 2.98536 96.4597 2.98194C93.3549 2.96502 90.2478 2.98194 87.143 2.96986C87.0632 2.95992 86.9826 2.97851 86.9146 3.02251C86.8466 3.06651 86.7954 3.13325 86.7696 3.2115C83.6554 9.59746 80.5381 15.9826 77.4177 22.3669L77.2674 22.6207L66.0742 0.84577H66.3631C66.9408 0.84577 67.5209 0.889267 68.094 0.84577C68.5637 0.79744 68.7656 1.00284 68.9676 1.40398C71.443 6.33521 73.9285 11.264 76.4242 16.1904C76.7014 16.7365 76.9761 17.2851 77.2744 17.882C77.3449 17.749 77.3989 17.6621 77.4412 17.5678C78.9137 14.4675 80.3956 11.3695 81.8494 8.25953C82.9579 5.88896 84.0335 3.49907 85.1138 1.114C85.1415 1.02507 85.1983 0.948759 85.2745 0.898085C85.3508 0.847411 85.4417 0.825506 85.5319 0.836104C89.3444 0.84577 93.1576 0.84577 96.9716 0.836104C97.8176 0.829098 98.6572 0.985662 99.447 1.29765C100.136 1.55471 100.754 1.97989 101.248 2.53672C101.742 3.09355 102.098 3.7654 102.284 4.49466C102.752 5.99861 102.715 7.62093 102.178 9.10047C101.474 10.9515 100.199 12.1791 98.3197 12.6841C97.8581 12.7954 97.3846 12.8458 96.9106 12.8339C94.0477 12.8484 91.1872 12.8339 88.3243 12.8339L88.0096 12.8412Z" fill="#171717"/>
<path fill-rule="evenodd" clip-rule="evenodd" d="M56.9639 4.14427V4.40525C56.9639 7.75208 56.9639 11.0965 56.9639 14.4433C56.9885 15.4892 56.8804 16.5339 56.6422 17.5509C56.0081 19.9867 54.5285 21.5816 52.1588 22.2413C50.1109 22.8116 48.0277 22.8865 46.0009 22.2413C43.6054 21.468 42.1658 19.7354 41.689 17.1812C41.5169 16.1762 41.4383 15.1567 41.4541 14.1364C41.4541 9.82864 41.4541 5.52086 41.4541 1.21308V0.865109H43.535V1.18892C43.535 5.87528 43.5389 10.5592 43.5467 15.2407C43.5096 16.451 43.8741 17.6382 44.5801 18.6069C45.2064 19.4434 46.0925 20.0336 47.0906 20.2791C48.6401 20.7093 50.281 20.635 51.7877 20.0665C53.5797 19.3874 54.5449 17.9931 54.8009 16.0696C54.8568 15.5966 54.8812 15.1203 54.8737 14.6439C54.8737 10.1686 54.8737 5.69324 54.8737 1.21791V0.862692C54.9724 0.862692 55.0499 0.848193 55.1274 0.848193C56.0315 0.848193 56.9334 0.848193 57.8352 0.848193C57.9143 0.838504 57.9943 0.857273 58.0615 0.901317C58.1287 0.945361 58.179 1.01197 58.2039 1.08984C60.6151 6.19184 63.0325 11.2914 65.4562 16.3886C66.0293 17.5968 66.6 18.8051 67.1801 20.0133C67.218 20.0804 67.238 20.1567 67.238 20.2344C67.238 20.3121 67.218 20.3884 67.1801 20.4555C66.8536 21.1176 66.5389 21.7894 66.2195 22.4564C66.1984 22.4974 66.1725 22.5385 66.1232 22.6279L57.0203 4.14186L56.9639 4.14427Z" fill="#171717"/>
<path d="M42.3486 27.4438H44.932C46.9565 27.4438 48.321 28.7826 48.321 30.6964C48.321 32.6103 46.9565 33.9514 44.932 33.9514H42.3486V27.4438ZM44.8874 33.3473C46.5666 33.3473 47.6516 32.2502 47.6516 30.6892C47.6516 29.1281 46.5666 28.0311 44.8874 28.0311H43.0086V33.3473H44.8874Z" fill="#171717"/>
<path d="M53.876 27.4438H54.5453V33.9514H53.876V27.4438Z" fill="#171717"/>
<path d="M65.1251 30.6891H65.7592V33.178C65.1081 33.7347 64.2827 34.0292 63.4365 34.0069C61.513 34.0069 60.1016 32.6029 60.1016 30.6963C60.1016 28.7897 61.5107 27.3857 63.4459 27.3857C64.4041 27.3857 65.2355 27.7023 65.7944 28.3258L65.3858 28.7559C65.1352 28.5017 64.8368 28.3028 64.5089 28.1715C64.181 28.0402 63.8304 27.9792 63.4788 27.9923C61.917 27.9923 60.7685 29.1377 60.7685 30.6891C60.7685 32.2405 61.917 33.3859 63.4694 33.3859C64.0594 33.4059 64.6401 33.2296 65.1251 32.8832V30.6891Z" fill="#171717"/>
<path d="M71.7197 27.4438H72.3867V33.9514H71.7197V27.4438Z" fill="#171717"/>
<path d="M79.7426 28.031H77.5186V27.4365H82.6337V28.031H80.4096V33.9514H79.7426V28.031Z" fill="#171717"/>
<path d="M91.4151 32.2116H87.8922L87.1313 33.9514H86.4268L89.3178 27.4438H89.9778L92.8688 33.9514H92.1642L91.4151 32.2116ZM91.1802 31.6534L89.663 28.1591L88.1341 31.6558L91.1802 31.6534Z" fill="#171717"/>
<path d="M97.9902 27.4438H98.6596V33.3473H102.201V33.9442H97.9902V27.4438Z" fill="#171717"/>
<path d="M0.392578 36.0469H2.02247V36.3852H0.782436V37.4194H1.92618V37.7505H0.782436V39.1593H0.392578V36.0469Z" fill="#323232"/>
<path d="M3.48058 37.7598V38.0594H2.37207V37.7598H3.48058Z" fill="#323232"/>
<path d="M3.88672 38.7434C4.04322 38.8446 4.22333 38.9005 4.4081 38.9053C4.69462 38.9053 4.83084 38.7579 4.83084 38.5719C4.83084 38.3858 4.71811 38.2722 4.42689 38.1611C4.03468 38.0185 3.8515 37.7962 3.8515 37.5279C3.8515 37.1679 4.13567 36.8731 4.60068 36.8731C4.78761 36.8717 4.97184 36.9191 5.13615 37.0108L5.03751 37.308C4.9033 37.2231 4.74887 37.1779 4.59129 37.1776C4.35643 37.1776 4.22961 37.3177 4.22961 37.482C4.22961 37.6464 4.35878 37.7503 4.64061 37.8614C5.01872 38.0088 5.2113 38.2021 5.2113 38.5356C5.2113 38.9295 4.91539 39.205 4.39871 39.205C4.18587 39.2087 3.97566 39.1563 3.78809 39.0527L3.88672 38.7434Z" fill="#323232"/>
<path d="M6.10626 37.9387C6.16028 37.8614 6.23543 37.7647 6.29884 37.6971L6.93764 36.9238H7.40735L6.57597 37.8421L7.53182 39.159H7.05977L6.31058 38.0885L6.10861 38.3181V39.159H5.71875V35.8799H6.10626V37.9387Z" fill="#323232"/>
<path d="M9.10728 39.1591L9.0744 38.8764C8.99742 38.9824 8.89694 39.068 8.78134 39.126C8.66574 39.184 8.53835 39.2127 8.40977 39.2099C8.32447 39.2162 8.23883 39.2043 8.15822 39.175C8.0776 39.1456 8.00377 39.0994 7.94134 39.0392C7.87892 38.9791 7.82927 38.9063 7.7955 38.8255C7.76173 38.7447 7.74458 38.6575 7.74513 38.5695C7.74513 38.0282 8.21484 37.7334 9.05092 37.7358V37.6972C9.05947 37.628 9.05268 37.5577 9.03107 37.4917C9.00945 37.4256 8.97356 37.3654 8.9261 37.3156C8.87864 37.2659 8.82084 37.2278 8.75704 37.2043C8.69324 37.1809 8.62509 37.1725 8.55773 37.18C8.35773 37.1809 8.16185 37.2386 7.99173 37.3468L7.90248 37.0785C8.11538 36.9476 8.35902 36.8791 8.60705 36.8804C9.27168 36.8804 9.43138 37.3468 9.43138 37.7938V38.6299C9.42839 38.8095 9.44097 38.9891 9.46896 39.1664L9.10728 39.1591ZM9.04857 38.0186C8.61644 38.0186 8.12794 38.0886 8.12794 38.5212C8.12446 38.5726 8.13173 38.6241 8.14927 38.6723C8.1668 38.7206 8.19419 38.7644 8.22959 38.8008C8.26498 38.8372 8.30756 38.8654 8.35444 38.8835C8.40133 38.9015 8.45143 38.909 8.50136 38.9054C8.61599 38.9082 8.72853 38.8735 8.82269 38.8061C8.91684 38.7388 8.98773 38.6424 9.02509 38.5308C9.0397 38.4889 9.04763 38.4449 9.04857 38.4004V38.0137V38.0186Z" fill="#323232"/>
<path d="M10.5237 36.2812V36.924H11.0897V37.2333H10.5237V38.4416C10.5237 38.7195 10.6012 38.8766 10.8197 38.8766C10.8989 38.8782 10.9779 38.8684 11.0545 38.8476L11.0733 39.152C10.9611 39.1932 10.8424 39.2121 10.7234 39.2076C10.6443 39.2124 10.5652 39.1995 10.4914 39.1699C10.4176 39.1403 10.351 39.0946 10.2959 39.036C10.1757 38.8695 10.1212 38.6623 10.1433 38.4561V37.2478H9.80273V36.924H10.1386V36.3876L10.5237 36.2812Z" fill="#323232"/>
<path d="M12.0105 36.2812V36.924H12.5765V37.2333H12.0105V38.4416C12.0105 38.7195 12.088 38.8766 12.3064 38.8766C12.3856 38.8785 12.4647 38.8687 12.5412 38.8476L12.56 39.152C12.4479 39.1932 12.3291 39.2121 12.2101 39.2076C12.1311 39.2121 12.052 39.1991 11.9783 39.1695C11.9046 39.1399 11.8379 39.0944 11.7827 39.036C11.6643 38.8686 11.6107 38.6619 11.6323 38.4561V37.2478H11.2871V36.924H11.6253V36.3876L12.0105 36.2812Z" fill="#323232"/>
<path d="M14.0745 38.8738C14.1804 38.8801 14.2866 38.8752 14.3915 38.8593C14.6195 38.8307 14.8331 38.7293 15.0022 38.5693C15.2172 38.3567 15.3541 38.0741 15.3897 37.7695H15.3756C15.2926 37.874 15.1874 37.9576 15.0681 38.0137C14.9488 38.0699 14.8186 38.0971 14.6875 38.0933C14.571 38.0958 14.4553 38.0735 14.3476 38.0279C14.2398 37.9822 14.1425 37.9141 14.0615 37.8279C13.9806 37.7417 13.9179 37.6392 13.8773 37.5268C13.8366 37.4145 13.819 37.2947 13.8255 37.175C13.8208 37.0369 13.8431 36.8992 13.8911 36.7701C13.9391 36.6411 14.0118 36.5232 14.1049 36.4236C14.198 36.324 14.3096 36.2446 14.433 36.1902C14.5565 36.1358 14.6894 36.1075 14.8237 36.1069C15.4202 36.1069 15.7889 36.6071 15.7889 37.3732C15.8023 37.6308 15.7646 37.8885 15.6782 38.1307C15.5918 38.3728 15.4585 38.5944 15.2863 38.782C15.0524 39.0065 14.7542 39.1472 14.4362 39.1831C14.3167 39.2041 14.1955 39.2122 14.0745 39.2073V38.8738ZM14.2177 37.146C14.2095 37.2268 14.2179 37.3084 14.2424 37.3856C14.2668 37.4628 14.3069 37.5338 14.3599 37.594C14.4128 37.6543 14.4775 37.7023 14.5498 37.735C14.622 37.7677 14.7001 37.7844 14.779 37.784C14.8932 37.7873 15.0062 37.7601 15.107 37.705C15.2079 37.65 15.2931 37.5689 15.3544 37.4698C15.379 37.4249 15.3912 37.3739 15.3897 37.3224C15.3897 36.8077 15.2065 36.4162 14.7931 36.4162C14.4549 36.4162 14.2177 36.7304 14.2177 37.146Z" fill="#323232"/>
<path d="M16.1484 39.159V38.9173L16.4561 38.608C17.2029 37.8831 17.5388 37.4916 17.5435 37.0373C17.5515 36.9574 17.5419 36.8767 17.5154 36.8012C17.4889 36.7257 17.4462 36.6573 17.3904 36.6011C17.3347 36.5449 17.2673 36.5023 17.1934 36.4766C17.1195 36.4509 17.0408 36.4427 16.9634 36.4525C16.7346 36.4616 16.5157 36.5512 16.3434 36.7063L16.2189 36.4187C16.4512 36.2206 16.7438 36.1129 17.0456 36.1142C17.1616 36.1035 17.2785 36.1183 17.3885 36.1577C17.4985 36.1971 17.5991 36.2602 17.6835 36.3428C17.768 36.4253 17.8343 36.5254 17.8782 36.6364C17.9221 36.7475 17.9425 36.8668 17.938 36.9866C17.938 37.5424 17.5482 37.9894 16.9328 38.5984L16.698 38.8207H18.0061V39.159H16.1484Z" fill="#323232"/>
<path d="M20.3878 37.6269C20.3878 38.6467 20.0214 39.2097 19.3756 39.2097C18.8049 39.2097 18.4197 38.6612 18.4103 37.668C18.4009 36.6748 18.833 36.1069 19.4249 36.1069C20.0167 36.1069 20.3878 36.67 20.3878 37.6269ZM18.8049 37.6728C18.8049 38.4533 19.0397 38.8956 19.3967 38.8956C19.8006 38.8956 19.9932 38.4123 19.9932 37.6438C19.9932 36.8754 19.81 36.4211 19.4014 36.4211C19.0562 36.4211 18.8049 36.856 18.8049 37.6728Z" fill="#323232"/>
<path d="M21.6069 36.5371L21.0996 36.8174L21.0244 36.5081L21.6609 36.1577H21.9991V39.159H21.6069V36.5371Z" fill="#323232"/>
<path d="M24.7208 36.4453C24.6211 36.4409 24.5212 36.4465 24.4226 36.4622C24.1625 36.4999 23.9219 36.6251 23.7384 36.8183C23.5548 37.0116 23.4386 37.2619 23.408 37.5303H23.4221C23.5398 37.378 23.7016 37.2682 23.884 37.2169C24.0664 37.1656 24.2599 37.1753 24.4366 37.2448C24.6132 37.3143 24.7638 37.4398 24.8664 37.6033C24.969 37.7667 25.0184 37.9595 25.0074 38.1537C25.0144 38.2894 24.9945 38.4252 24.9489 38.5527C24.9034 38.6803 24.8331 38.797 24.7424 38.8957C24.6517 38.9945 24.5425 39.0732 24.4213 39.1272C24.3001 39.1812 24.1695 39.2093 24.0374 39.2097C23.4127 39.2097 23.004 38.7119 23.004 37.9314C22.9956 37.6834 23.0351 37.436 23.1201 37.2038C23.2052 36.9715 23.3342 36.7589 23.4996 36.5782C23.7559 36.3268 24.0866 36.1711 24.439 36.136C24.5345 36.1201 24.6311 36.112 24.7279 36.1118V36.4453H24.7208ZM24.6081 38.1755C24.6081 37.7454 24.3732 37.4868 24.0069 37.4868C23.8887 37.4892 23.7734 37.525 23.6736 37.5902C23.5738 37.6554 23.4933 37.7475 23.4409 37.8565C23.4096 37.9114 23.3942 37.9742 23.3963 38.0378C23.3963 38.521 23.6311 38.8956 24.0374 38.8956C24.3779 38.9053 24.6081 38.6056 24.6081 38.1803V38.1755Z" fill="#323232"/>
<path d="M25.4508 38.693C25.6468 38.8118 25.8692 38.8767 26.0967 38.8814C26.6039 38.8814 26.7613 38.5504 26.7566 38.3015C26.7566 37.881 26.3832 37.6998 26.0027 37.6998H25.7819V37.3953H26.0027C26.2892 37.3953 26.6533 37.2431 26.6533 36.8878C26.6533 36.6462 26.5053 36.436 26.1413 36.436C25.9325 36.4422 25.7301 36.511 25.5588 36.6341L25.4532 36.3393C25.6793 36.1839 25.9446 36.1 26.2164 36.0977C26.7918 36.0977 27.0525 36.448 27.0525 36.8226C27.0493 36.9846 26.9952 37.1411 26.8982 37.2688C26.8013 37.3965 26.6667 37.4883 26.5147 37.5306C26.695 37.5573 26.86 37.6499 26.9794 37.7914C27.0989 37.933 27.1648 38.114 27.1652 38.3015C27.1652 38.7848 26.8012 39.2028 26.1014 39.2028C25.8354 39.2064 25.5733 39.1363 25.3428 38.9998L25.4508 38.693Z" fill="#323232"/>
<path d="M28.6993 37.7598V38.0594H27.5908V37.7598H28.6993Z" fill="#323232"/>
<path d="M30.7006 36.4453C30.6017 36.4409 30.5025 36.4466 30.4047 36.4622C30.1446 36.4999 29.904 36.6251 29.7205 36.8183C29.5369 37.0116 29.4208 37.2619 29.3901 37.5303H29.4042C29.5219 37.378 29.6837 37.2682 29.8661 37.2169C30.0485 37.1656 30.242 37.1753 30.4187 37.2448C30.5953 37.3143 30.7459 37.4398 30.8485 37.6033C30.9511 37.7667 31.0005 37.9595 30.9895 38.1537C30.9965 38.2894 30.9766 38.4252 30.9311 38.5527C30.8855 38.6803 30.8153 38.797 30.7245 38.8957C30.6338 38.9945 30.5246 39.0732 30.4034 39.1272C30.2822 39.1812 30.1516 39.2093 30.0195 39.2097C29.3948 39.2097 28.9885 38.7119 28.9885 37.9314C28.9798 37.6835 29.0188 37.4363 29.1035 37.204C29.1881 36.9718 29.3167 36.7591 29.4817 36.5782C29.738 36.3268 30.0687 36.1711 30.4211 36.136C30.5159 36.1202 30.6117 36.1121 30.7076 36.1118V36.4453H30.7006ZM30.5902 38.1755C30.5902 37.7454 30.3554 37.4868 29.989 37.4868C29.8709 37.4895 29.7557 37.5253 29.6559 37.5905C29.5562 37.6557 29.4756 37.7477 29.423 37.8565C29.3917 37.9114 29.3763 37.9742 29.3784 38.0378C29.3784 38.521 29.6132 38.8956 30.0195 38.8956C30.3601 38.9053 30.5902 38.6056 30.5902 38.1803V38.1755Z" fill="#323232"/>
<path d="M32.1957 36.5371L31.6884 36.8174L31.6133 36.5081L32.2497 36.1577H32.5856V39.159H32.2051V36.5371H32.1957Z" fill="#323232"/>
<path d="M33.7346 38.6925C33.9309 38.8106 34.1531 38.8755 34.3804 38.881C34.8877 38.881 35.0451 38.5499 35.0404 38.301C35.0404 37.8805 34.667 37.6993 34.2865 37.6993H34.0657V37.3948H34.2888C34.5754 37.3948 34.9394 37.2426 34.9394 36.8874C34.9394 36.6457 34.7914 36.4355 34.4298 36.4355C34.2202 36.4413 34.0169 36.5102 33.845 36.6336L33.7416 36.3388C33.9674 36.1827 34.2329 36.0986 34.5049 36.0972C35.078 36.0972 35.3386 36.4476 35.3386 36.8221C35.3359 36.9842 35.2819 37.141 35.1848 37.2687C35.0878 37.3964 34.953 37.4882 34.8008 37.5301C34.9812 37.5568 35.1461 37.6494 35.2656 37.791C35.385 37.9325 35.451 38.1135 35.4514 38.301C35.4514 38.7843 35.0873 39.2023 34.3875 39.2023C34.1215 39.2056 33.8596 39.1355 33.6289 38.9994L33.7346 38.6925Z" fill="#323232"/>
<path d="M35.9326 39.159V38.9173L36.2426 38.608C36.9871 37.8831 37.3253 37.4916 37.33 37.0373C37.3376 36.9575 37.3276 36.877 37.301 36.8017C37.2743 36.7264 37.2316 36.6582 37.176 36.6021C37.1203 36.546 37.0532 36.5034 36.9794 36.4775C36.9057 36.4517 36.8273 36.4431 36.7499 36.4525C36.521 36.4612 36.3021 36.5508 36.1299 36.7062L36.0054 36.4187C36.2371 36.221 36.5288 36.1132 36.8298 36.1142C36.9459 36.1035 37.0629 36.1183 37.173 36.1577C37.2831 36.1971 37.3838 36.2602 37.4684 36.3427C37.5531 36.4252 37.6197 36.5252 37.6638 36.6363C37.708 36.7473 37.7287 36.8667 37.7246 36.9866C37.7246 37.5424 37.3323 37.9894 36.717 38.5984L36.4822 38.8207H37.8115V39.159H35.9326Z" fill="#323232"/>
</g>
<defs>
<clipPath id="clip0_5494_4847">
<rect width="103" height="40" fill="white"/>
</clipPath>
</defs>
</svg>
