<svg width="123" height="48" viewBox="0 0 123 48" fill="none" xmlns="http://www.w3.org/2000/svg">
<g clip-path="url(#clip0_5494_5425)">
<path fill-rule="evenodd" clip-rule="evenodd" d="M13.504 17.416L42.6295 40.8085H0.468384L13.504 17.416Z" fill="white"/>
<path fill-rule="evenodd" clip-rule="evenodd" d="M12.7412 7.35672L22.7171 0.945312C30.1043 14.1741 37.4756 27.3748 44.8311 40.5476L12.7412 7.35672Z" fill="white"/>
<path fill-rule="evenodd" clip-rule="evenodd" d="M15.8935 13.1709L42.6295 40.8087L13.504 17.4162L15.8935 13.1709Z" fill="#ACACAC"/>
<path fill-rule="evenodd" clip-rule="evenodd" d="M105.098 15.4092V27.1562H102.611V12.8632H102.981C107.067 12.8632 111.156 12.8632 115.243 12.8632C116.965 12.8632 118.381 12.1586 119.343 10.6478C119.724 10.0463 119.96 9.3596 120.033 8.64463C120.105 7.92966 120.012 7.2071 119.76 6.537C119.508 5.86689 119.106 5.26858 118.585 4.79179C118.065 4.31499 117.442 3.97348 116.768 3.79561C116.253 3.6553 115.722 3.58223 115.189 3.57813C111.482 3.55783 107.771 3.57813 104.064 3.56363C103.968 3.55171 103.872 3.57402 103.791 3.62682C103.71 3.67962 103.649 3.7597 103.618 3.85361C99.8988 11.5168 96.1762 19.1789 92.4499 26.8401L92.2704 27.1446L78.9038 1.01473H79.2488C79.9387 1.01473 80.6314 1.06692 81.3157 1.01473C81.8767 0.956733 82.1178 1.20321 82.359 1.68458C85.3151 7.60205 88.2832 13.5166 91.2635 19.4283C91.5945 20.0837 91.9226 20.7419 92.2788 21.4582C92.3629 21.2987 92.4274 21.1943 92.4779 21.0812C94.2364 17.3608 96.0061 13.6433 97.7421 9.91124C99.0659 7.06656 100.35 4.19868 101.64 1.3366C101.673 1.22988 101.741 1.13832 101.832 1.07751C101.923 1.0167 102.032 0.990412 102.14 1.00313C106.692 1.01473 111.246 1.01473 115.801 1.00313C116.811 0.994722 117.814 1.1826 118.757 1.55699C119.579 1.86545 120.317 2.37567 120.908 3.04386C121.498 3.71206 121.922 4.51829 122.145 5.39339C122.704 7.19813 122.659 9.14492 122.018 10.9204C121.177 13.1416 119.654 14.6147 117.411 15.2207C116.859 15.3543 116.294 15.4147 115.728 15.4005C112.309 15.4179 108.893 15.4005 105.474 15.4005L105.098 15.4092Z" fill="white"/>
<path fill-rule="evenodd" clip-rule="evenodd" d="M68.0249 4.97293V5.28611C68.0249 9.3023 68.0249 13.3156 68.0249 17.3318C68.0543 18.5868 67.9251 19.8404 67.6406 21.0609C66.8834 23.9839 65.1165 25.8977 62.2867 26.6894C59.8411 27.3737 57.3535 27.4636 54.9331 26.6894C52.0725 25.7614 50.3533 23.6823 49.7839 20.6172C49.5784 19.4113 49.4845 18.1879 49.5035 16.9635C49.5035 11.7942 49.5035 6.62484 49.5035 1.4555V1.03793H51.9883V1.4265C51.9883 7.05014 51.993 12.6709 52.0024 18.2887C51.9581 19.741 52.3933 21.1656 53.2364 22.3281C53.9843 23.3319 55.0425 24.0401 56.2345 24.3347C58.0848 24.8509 60.0443 24.7618 61.8436 24.0796C63.9835 23.2647 65.1362 21.5915 65.4419 19.2833C65.5086 18.7158 65.5377 18.1441 65.5288 17.5725C65.5288 12.2021 65.5288 6.83169 65.5288 1.4613V1.03504C65.6466 1.03504 65.7391 1.01764 65.8317 1.01764C66.9114 1.01764 67.9884 1.01764 69.0654 1.01764C69.1598 1.00601 69.2553 1.02853 69.3356 1.08139C69.4158 1.13424 69.4759 1.21417 69.5057 1.30761C72.385 7.43001 75.2719 13.5495 78.1662 19.6661C78.8505 21.116 79.532 22.5659 80.2247 24.0158C80.2701 24.0963 80.2939 24.1879 80.2939 24.2811C80.2939 24.3743 80.2701 24.4658 80.2247 24.5464C79.8349 25.341 79.4591 26.1471 79.0777 26.9474C79.0524 26.9967 79.0216 27.046 78.9627 27.1533L68.0922 4.97003L68.0249 4.97293Z" fill="white"/>
<path d="M50.572 32.9326H53.657C56.0746 32.9326 57.704 34.5391 57.704 36.8357C57.704 39.1323 56.0746 40.7417 53.657 40.7417H50.572V32.9326ZM53.6038 40.0168C55.609 40.0168 56.9047 38.7003 56.9047 36.827C56.9047 34.9538 55.609 33.6373 53.6038 33.6373H51.3601V40.0168H53.6038Z" fill="white"/>
<path d="M64.3368 32.9326H65.1361V40.7417H64.3368V32.9326Z" fill="white"/>
<path d="M77.7707 36.8273H78.5279V39.814C77.7504 40.482 76.7648 40.8354 75.7542 40.8087C73.4573 40.8087 71.7717 39.1239 71.7717 36.836C71.7717 34.5481 73.4545 32.8633 75.7654 32.8633C76.9097 32.8633 77.9025 33.2432 78.57 33.9913L78.082 34.5075C77.7828 34.2024 77.4264 33.9638 77.0348 33.8062C76.6432 33.6486 76.2246 33.5754 75.8047 33.5911C73.9397 33.5911 72.5682 34.9656 72.5682 36.8273C72.5682 38.6889 73.9397 40.0634 75.7935 40.0634C76.4981 40.0874 77.1915 39.8759 77.7707 39.4603V36.8273Z" fill="white"/>
<path d="M85.646 32.9326H86.4425V40.7417H85.646V32.9326Z" fill="white"/>
<path d="M95.2264 33.6372H92.5704V32.9238H98.6788V33.6372H96.0229V40.7416H95.2264V33.6372Z" fill="white"/>
<path d="M109.165 38.6539H104.958L104.05 40.7417H103.208L106.661 32.9326H107.449L110.901 40.7417H110.06L109.165 38.6539ZM108.885 37.984L107.073 33.791L105.247 37.9869L108.885 37.984Z" fill="white"/>
<path d="M117.018 32.9326H117.817V40.0168H122.046V40.733H117.018V32.9326Z" fill="white"/>
<path d="M0.468384 43.2559H2.41475V43.6618H0.933942V44.9029H2.29977V45.3002H0.933942V46.9908H0.468384V43.2559Z" fill="#F8F9F9"/>
<path d="M4.1564 45.312V45.6716H2.83264V45.312H4.1564Z" fill="#F8F9F9"/>
<path d="M4.6416 46.492C4.82848 46.6134 5.04356 46.6806 5.26421 46.6863C5.60637 46.6863 5.76903 46.5094 5.76903 46.2861C5.76903 46.0629 5.63441 45.9266 5.28665 45.7932C4.81828 45.6221 4.59953 45.3553 4.59953 45.0334C4.59953 44.6014 4.93888 44.2476 5.49418 44.2476C5.71742 44.2459 5.93741 44.3028 6.13363 44.4129L6.01584 44.7696C5.85557 44.6676 5.67115 44.6134 5.48297 44.613C5.20251 44.613 5.05106 44.7812 5.05106 44.9783C5.05106 45.1755 5.20531 45.3002 5.54186 45.4336C5.9934 45.6105 6.22337 45.8425 6.22337 46.2426C6.22337 46.7153 5.87 47.0459 5.25299 47.0459C4.99883 47.0503 4.7478 46.9874 4.5238 46.8632L4.6416 46.492Z" fill="#F8F9F9"/>
<path d="M7.29186 45.5263C7.35636 45.4335 7.44611 45.3175 7.52183 45.2363L8.28467 44.3084H8.84559L7.85277 45.4103L8.99423 46.9907H8.43051L7.53585 45.7061L7.29466 45.9815V46.9907H6.8291V43.0557H7.29186V45.5263Z" fill="#F8F9F9"/>
<path d="M10.8762 46.9909L10.8369 46.6516C10.745 46.7788 10.625 46.8815 10.4869 46.9511C10.3489 47.0207 10.1968 47.0552 10.0432 47.0518C9.94137 47.0594 9.83909 47.0451 9.74282 47.0099C9.64656 46.9746 9.55838 46.9192 9.48384 46.847C9.4093 46.7748 9.35 46.6875 9.30968 46.5905C9.26936 46.4935 9.24888 46.3889 9.24953 46.2833C9.24953 45.6338 9.81044 45.28 10.8089 45.2829V45.2365C10.8191 45.1535 10.811 45.0692 10.7852 44.9899C10.7593 44.9106 10.7165 44.8384 10.6598 44.7787C10.6031 44.719 10.5341 44.6733 10.4579 44.6451C10.3817 44.6169 10.3004 44.607 10.2199 44.6159C9.98108 44.617 9.74717 44.6862 9.54401 44.816L9.43743 44.4942C9.69167 44.337 9.98262 44.2548 10.2788 44.2564C11.0725 44.2564 11.2632 44.816 11.2632 45.3525V46.3558C11.2596 46.5713 11.2747 46.7868 11.3081 46.9996L10.8762 46.9909ZM10.8061 45.6222C10.29 45.6222 9.70667 45.7063 9.70667 46.2253C9.70252 46.287 9.7112 46.3488 9.73214 46.4067C9.75308 46.4646 9.78579 46.5172 9.82805 46.5609C9.87032 46.6046 9.92117 46.6384 9.97715 46.6601C10.0331 46.6817 10.093 46.6907 10.1526 46.6864C10.2895 46.6898 10.4239 46.6481 10.5363 46.5673C10.6488 46.4865 10.7334 46.3708 10.778 46.2369C10.7955 46.1866 10.8049 46.1337 10.8061 46.0803V45.6164V45.6222Z" fill="#F8F9F9"/>
<path d="M12.5673 43.5371V44.3085H13.2432V44.6796H12.5673V46.1295C12.5673 46.463 12.6599 46.6515 12.9207 46.6515C13.0153 46.6534 13.1097 46.6417 13.2011 46.6167L13.2236 46.982C13.0896 47.0315 12.9478 47.0541 12.8057 47.0487C12.7113 47.0545 12.6168 47.039 12.5287 47.0035C12.4406 46.968 12.361 46.9132 12.2953 46.8429C12.1517 46.643 12.0866 46.3944 12.113 46.1469V44.697H11.7063V44.3085H12.1074V43.6647L12.5673 43.5371Z" fill="#F8F9F9"/>
<path d="M14.3423 43.5371V44.3085H15.0182V44.6796H14.3423V46.1295C14.3423 46.463 14.4349 46.6515 14.6957 46.6515C14.7903 46.6538 14.8848 46.642 14.9762 46.6167L14.9986 46.982C14.8646 47.0315 14.7228 47.0541 14.5807 47.0487C14.4863 47.0541 14.392 47.0385 14.3039 47.003C14.2159 46.9675 14.1362 46.9129 14.0703 46.8429C13.929 46.642 13.865 46.3939 13.8908 46.1469V44.697H13.4785V44.3085H13.8824V43.6647L14.3423 43.5371Z" fill="#F8F9F9"/>
<path d="M16.8078 46.6489C16.9342 46.6564 17.0611 46.6506 17.1864 46.6315C17.4586 46.5971 17.7136 46.4754 17.9156 46.2835C18.1724 46.0284 18.3359 45.6892 18.3783 45.3237H18.3615C18.2624 45.4491 18.1368 45.5494 17.9943 45.6168C17.8519 45.6841 17.6964 45.7168 17.5398 45.7122C17.4007 45.7153 17.2625 45.6885 17.1339 45.6337C17.0052 45.5789 16.889 45.4972 16.7923 45.3937C16.6957 45.2903 16.6207 45.1673 16.5723 45.0325C16.5238 44.8977 16.5027 44.7539 16.5105 44.6103C16.5048 44.4446 16.5315 44.2794 16.5888 44.1245C16.6461 43.9696 16.7329 43.8281 16.8441 43.7086C16.9552 43.5891 17.0885 43.4938 17.2359 43.4285C17.3834 43.3633 17.542 43.3293 17.7024 43.3286C18.4148 43.3286 18.8551 43.9289 18.8551 44.8481C18.871 45.1572 18.8261 45.4665 18.7229 45.7571C18.6197 46.0477 18.4605 46.3136 18.2549 46.5387C17.9755 46.8081 17.6194 46.9769 17.2397 47.02C17.0971 47.0452 16.9523 47.0549 16.8078 47.049V46.6489ZM16.9788 44.5755C16.969 44.6724 16.979 44.7704 17.0082 44.863C17.0375 44.9557 17.0853 45.0409 17.1485 45.1132C17.2118 45.1854 17.2891 45.243 17.3753 45.2823C17.4616 45.3216 17.5549 45.3416 17.6491 45.3411C17.7854 45.345 17.9204 45.3124 18.0408 45.2463C18.1613 45.1803 18.263 45.083 18.3363 44.9641C18.3656 44.9102 18.3802 44.849 18.3783 44.7872C18.3783 44.1695 18.1596 43.6998 17.666 43.6998C17.2621 43.6998 16.9788 44.0768 16.9788 44.5755Z" fill="#F8F9F9"/>
<path d="M19.2842 46.9908V46.7008L19.6516 46.3296C20.5434 45.4597 20.9445 44.9899 20.9501 44.4448C20.9597 44.3489 20.9482 44.2521 20.9165 44.1614C20.8849 44.0708 20.8339 43.9887 20.7673 43.9213C20.7007 43.8538 20.6203 43.8028 20.532 43.7719C20.4437 43.7411 20.3499 43.7312 20.2574 43.743C19.9841 43.7539 19.7228 43.8614 19.517 44.0475L19.3683 43.7024C19.6458 43.4648 19.9952 43.3354 20.3555 43.3371C20.4941 43.3242 20.6337 43.342 20.765 43.3893C20.8964 43.4366 21.0165 43.5123 21.1173 43.6113C21.2182 43.7104 21.2974 43.8305 21.3499 43.9637C21.4023 44.0969 21.4266 44.2402 21.4213 44.3839C21.4213 45.0508 20.9557 45.5873 20.2209 46.318L19.9404 46.5848H21.5026V46.9908H19.2842Z" fill="#F8F9F9"/>
<path d="M24.3465 45.1526C24.3465 46.3763 23.909 47.0519 23.1377 47.0519C22.4562 47.0519 21.9963 46.3937 21.985 45.2019C21.9738 44.0101 22.4899 43.3286 23.1966 43.3286C23.9034 43.3286 24.3465 44.0043 24.3465 45.1526ZM22.4562 45.2077C22.4562 46.1443 22.7367 46.675 23.163 46.675C23.6453 46.675 23.8753 46.095 23.8753 45.1729C23.8753 44.2507 23.6566 43.7056 23.1686 43.7056C22.7563 43.7056 22.4562 44.2275 22.4562 45.2077Z" fill="#F8F9F9"/>
<path d="M25.802 43.8444L25.1962 44.1808L25.1064 43.8096L25.8665 43.3892H26.2703V46.9907H25.802V43.8444Z" fill="#F8F9F9"/>
<path d="M29.5208 43.7346C29.4018 43.7293 29.2825 43.7361 29.1647 43.7549C28.8541 43.8001 28.5668 43.9504 28.3476 44.1823C28.1284 44.4142 27.9897 44.7146 27.9531 45.0366H27.9699C28.1105 44.8539 28.3036 44.7222 28.5215 44.6606C28.7393 44.599 28.9704 44.6107 29.1814 44.6941C29.3923 44.7774 29.5721 44.9281 29.6946 45.1242C29.8172 45.3203 29.8762 45.5517 29.863 45.7848C29.8714 45.9476 29.8476 46.1105 29.7932 46.2636C29.7389 46.4166 29.655 46.5567 29.5466 46.6752C29.4383 46.7937 29.3078 46.8882 29.1631 46.953C29.0184 47.0177 28.8624 47.0514 28.7047 47.052C27.9587 47.052 27.4707 46.4546 27.4707 45.518C27.4606 45.2203 27.5077 44.9235 27.6093 44.6448C27.7109 44.3661 27.8649 44.1109 28.0625 43.8941C28.3685 43.5925 28.7635 43.4057 29.1843 43.3635C29.2983 43.3444 29.4137 43.3347 29.5292 43.3345V43.7346H29.5208ZM29.3862 45.8109C29.3862 45.2947 29.1058 44.9844 28.6682 44.9844C28.5271 44.9874 28.3894 45.0303 28.2703 45.1085C28.1511 45.1867 28.0549 45.2973 27.9923 45.4281C27.955 45.4939 27.9366 45.5693 27.9391 45.6456C27.9391 46.2256 28.2195 46.675 28.7047 46.675C29.1114 46.6866 29.3862 46.327 29.3862 45.8167V45.8109Z" fill="#F8F9F9"/>
<path d="M30.3932 46.4313C30.6272 46.5739 30.8928 46.6518 31.1644 46.6574C31.7702 46.6574 31.9581 46.2602 31.9525 45.9615C31.9525 45.4569 31.5066 45.2394 31.0522 45.2394H30.7886V44.8741H31.0522C31.3944 44.8741 31.8291 44.6914 31.8291 44.2651C31.8291 43.9751 31.6524 43.7229 31.2177 43.7229C30.9684 43.7303 30.7266 43.813 30.5222 43.9606L30.396 43.6069C30.666 43.4204 30.9828 43.3197 31.3075 43.3169C31.9946 43.3169 32.3059 43.7374 32.3059 44.1868C32.3021 44.3812 32.2375 44.5691 32.1217 44.7223C32.0059 44.8755 31.8452 44.9857 31.6636 45.0365C31.879 45.0685 32.076 45.1796 32.2186 45.3494C32.3613 45.5193 32.44 45.7365 32.4405 45.9615C32.4405 46.5414 32.0058 47.0431 31.17 47.0431C30.8524 47.0474 30.5395 46.9633 30.2642 46.7995L30.3932 46.4313Z" fill="#F8F9F9"/>
<path d="M34.2719 45.312V45.6716H32.9481V45.312H34.2719Z" fill="#F8F9F9"/>
<path d="M36.6613 43.7346C36.5432 43.7294 36.4248 43.7362 36.3079 43.7549C35.9974 43.8001 35.7101 43.9504 35.4909 44.1823C35.2717 44.4142 35.133 44.7146 35.0964 45.0366H35.1132C35.2537 44.8539 35.4469 44.7222 35.6648 44.6606C35.8826 44.599 36.1137 44.6107 36.3247 44.6941C36.5356 44.7774 36.7154 44.9281 36.8379 45.1242C36.9605 45.3203 37.0195 45.5517 37.0063 45.7848C37.0146 45.9476 36.9909 46.1105 36.9365 46.2636C36.8821 46.4166 36.7983 46.5567 36.6899 46.6752C36.5816 46.7937 36.4511 46.8882 36.3064 46.953C36.1617 47.0177 36.0057 47.0514 35.848 47.052C35.102 47.052 34.6168 46.4546 34.6168 45.518C34.6063 45.2205 34.653 44.9239 34.7541 44.6451C34.8552 44.3664 35.0087 44.1112 35.2058 43.8941C35.5118 43.5925 35.9068 43.4057 36.3276 43.3635C36.4407 43.3445 36.5551 43.3348 36.6697 43.3345V43.7346H36.6613ZM36.5295 45.8109C36.5295 45.2947 36.2491 44.9844 35.8115 44.9844C35.6705 44.9877 35.5329 45.0307 35.4138 45.1089C35.2947 45.1871 35.1985 45.2975 35.1356 45.4281C35.0983 45.4939 35.0798 45.5693 35.0823 45.6456C35.0823 46.2256 35.3628 46.675 35.848 46.675C36.2547 46.6866 36.5295 46.327 36.5295 45.8167V45.8109Z" fill="#F8F9F9"/>
<path d="M38.4479 43.8444L37.8421 44.1808L37.7523 43.8096L38.5124 43.3892H38.9134V46.9907H38.4591V43.8444H38.4479Z" fill="#F8F9F9"/>
<path d="M40.2849 46.4313C40.5193 46.573 40.7847 46.6509 41.0562 46.6574C41.6619 46.6574 41.8498 46.2602 41.8442 45.9615C41.8442 45.4569 41.3983 45.2394 40.944 45.2394H40.6803V44.8741H40.9468C41.2889 44.8741 41.7236 44.6914 41.7236 44.2651C41.7236 43.9751 41.547 43.7229 41.1151 43.7229C40.8648 43.7299 40.622 43.8126 40.4167 43.9606L40.2933 43.6069C40.5629 43.4195 40.88 43.3186 41.2048 43.3169C41.8891 43.3169 42.2004 43.7374 42.2004 44.1868C42.1971 44.3813 42.1326 44.5694 42.0167 44.7227C41.9009 44.876 41.7399 44.9861 41.5582 45.0365C41.7735 45.0685 41.9705 45.1796 42.1132 45.3494C42.2558 45.5193 42.3346 45.7365 42.335 45.9615C42.335 46.5414 41.9003 47.0431 41.0646 47.0431C40.747 47.047 40.4342 46.9629 40.1587 46.7995L40.2849 46.4313Z" fill="#F8F9F9"/>
<path d="M42.9099 46.9908V46.7008L43.2801 46.3296C44.1692 45.4597 44.573 44.9899 44.5786 44.4448C44.5877 44.349 44.5758 44.2524 44.544 44.162C44.5122 44.0717 44.4611 43.9898 44.3947 43.9225C44.3282 43.8552 44.248 43.8041 44.16 43.7731C44.0719 43.742 43.9783 43.7317 43.8859 43.743C43.6126 43.7535 43.3511 43.861 43.1455 44.0475L42.9969 43.7024C43.2735 43.4652 43.6219 43.3359 43.9813 43.3371C44.1199 43.3242 44.2596 43.342 44.3911 43.3893C44.5226 43.4365 44.6429 43.5122 44.744 43.6112C44.845 43.7102 44.9245 43.8303 44.9773 43.9635C45.03 44.0967 45.0547 44.24 45.0498 44.3839C45.0498 45.0508 44.5814 45.5873 43.8466 46.318L43.5662 46.5848H45.1536V46.9908H42.9099Z" fill="#F8F9F9"/>
</g>
<defs>
<clipPath id="clip0_5494_5425">
<rect width="123" height="48" fill="white"/>
</clipPath>
</defs>
</svg>
