<svg width="28" height="20" viewBox="0 0 28 20" fill="none" xmlns="http://www.w3.org/2000/svg">
<path id="Vector" d="M14.0901 0H14.2459C15.6845 0.00533855 22.9737 0.0587244 24.9391 0.596139C25.5332 0.760154 26.0746 1.07985 26.5092 1.52328C26.9438 1.96671 27.2563 2.51834 27.4155 3.12305C27.5922 3.79927 27.7165 4.69437 27.8005 5.61794L27.818 5.80301L27.8565 6.26568L27.8705 6.45075C27.9843 8.07723 27.9983 9.6005 28 9.93327V10.0667C27.9983 10.412 27.9825 12.0384 27.8565 13.7325L27.8425 13.9194L27.8267 14.1045C27.7392 15.1223 27.6097 16.1331 27.4155 16.8769C27.2567 17.4819 26.9444 18.0338 26.5098 18.4773C26.0751 18.9208 25.5334 19.2403 24.9391 19.4039C22.9089 19.9591 15.1927 19.9982 14.1234 20H13.8749C13.3341 20 11.0974 19.9893 8.7523 19.9075L8.45478 19.8968L8.30252 19.8897L8.00325 19.8772L7.70398 19.8648C5.76136 19.7776 3.91149 19.637 3.05919 19.4021C2.46501 19.2387 1.92348 18.9194 1.48886 18.4763C1.05424 18.0331 0.741778 17.4816 0.582786 16.8769C0.388524 16.1349 0.259016 15.1223 0.171511 14.1045L0.15751 13.9176L0.143509 13.7325C0.0571369 12.5267 0.00927535 11.3184 0 10.1094L0 9.89056C0.00350022 9.50796 0.0175011 8.18578 0.112007 6.72658L0.124258 6.54329L0.129508 6.45075L0.143509 6.26568L0.182011 5.80301L0.199512 5.61794C0.283518 4.69437 0.407775 3.79749 0.584537 3.12305C0.74326 2.5181 1.0556 1.96621 1.49024 1.5227C1.92488 1.0792 2.46655 0.759663 3.06094 0.596139C3.91324 0.364801 5.76311 0.22244 7.70573 0.133464L8.00325 0.121007L8.30427 0.11033L8.45478 0.104992L8.75405 0.0925352C10.4196 0.0380367 12.0859 0.00778159 13.7524 0.0017796H14.0901V0ZM11.2007 5.71225V14.286L18.4759 10.0009L11.2007 5.71225Z" fill="black"/>
</svg>
