<svg width="40" height="40" viewBox="0 0 40 40" fill="none" xmlns="http://www.w3.org/2000/svg">
<path d="M7.91124 11.4236C9.82933 11.4236 11.3843 9.86864 11.3843 7.95055C11.3843 6.03246 9.82933 4.47754 7.91124 4.47754C5.99315 4.47754 4.43823 6.03246 4.43823 7.95055C4.43823 9.86864 5.99315 11.4236 7.91124 11.4236Z" fill="#171717"/>
<path fill-rule="evenodd" clip-rule="evenodd" d="M14.6632 33.3236V14.0553H20.4061V16.6902H20.4871C21.2855 15.1775 23.2379 13.5791 26.1505 13.5791C32.2171 13.5791 33.3347 17.568 33.3347 22.7584V33.3251H27.349V23.9537C27.349 21.7203 27.3109 18.8458 24.2362 18.8458C21.1189 18.8458 20.6457 21.2807 20.6457 23.795V33.3236H14.6632ZM10.9061 14.0553H4.91406V33.3236H10.9061V14.0553Z" fill="#171717"/>
</svg>
