<svg width="34" height="23" viewBox="0 0 34 23" fill="none" xmlns="http://www.w3.org/2000/svg">
<path fill-rule="evenodd" clip-rule="evenodd" d="M0.82938 22.5927C0.676051 22.4339 0.540311 22.258 0.425293 22.0681L10.4953 15.39C10.6473 15.2892 10.8523 15.3307 10.9531 15.4827C11.0539 15.6347 11.0124 15.8397 10.8604 15.9405L0.82938 22.5927Z" fill="#FF304D"/>
<path fill-rule="evenodd" clip-rule="evenodd" d="M0.936291 0.302246L10.3684 6.68922C10.519 6.79121 10.5589 6.99656 10.4574 7.14789C10.3559 7.29922 10.1515 7.33922 10.0009 7.23724L0.505371 0.807361C0.629895 0.623216 0.77459 0.453791 0.936291 0.302246Z" fill="#FF304D"/>
<path fill-rule="evenodd" clip-rule="evenodd" d="M33.1724 22.1475C33.0519 22.3328 32.9113 22.5039 32.7537 22.6575L23.0315 16.1809C22.8799 16.0799 22.8399 15.8766 22.9421 15.7268C23.0442 15.577 23.2499 15.5374 23.4015 15.6384L33.1724 22.1475Z" fill="#FF304D"/>
<path fill-rule="evenodd" clip-rule="evenodd" d="M33.1524 0.822997L23.3953 7.23992C23.2435 7.33973 23.0395 7.29765 22.9397 7.14593C22.8398 6.9942 22.8819 6.79028 23.0337 6.69047L32.7257 0.316406C32.886 0.468615 33.0293 0.638524 33.1524 0.822997Z" fill="#FF304D"/>
</svg>
