<svg width="40" height="40" viewBox="0 0 40 40" fill="none" xmlns="http://www.w3.org/2000/svg">
<path fill-rule="evenodd" clip-rule="evenodd" d="M19.9998 12.3027C15.7484 12.3027 12.3027 15.7484 12.3027 19.9998C12.3027 24.2513 15.7484 27.697 19.9998 27.697C24.2513 27.697 27.697 24.2513 27.697 19.9998C27.697 15.7484 24.2513 12.3027 19.9998 12.3027ZM19.9998 25.0057C17.2398 25.0057 14.9942 22.7598 14.9942 19.9998C14.9942 17.2398 17.2398 14.9942 19.9998 14.9942C22.7598 14.9942 25.0057 17.2398 25.0057 19.9998C25.0057 22.7598 22.7598 25.0057 19.9998 25.0057Z" fill="#171717"/>
<path d="M29.8061 11.9943C29.8061 12.9885 29.0002 13.7943 28.0061 13.7943C27.0121 13.7943 26.2061 12.9885 26.2061 11.9943C26.2061 11.0002 27.0121 10.1943 28.0061 10.1943C29.0002 10.1943 29.8061 11.0002 29.8061 11.9943Z" fill="#171717"/>
<path fill-rule="evenodd" clip-rule="evenodd" d="M20 5C15.92 5 15.4229 5.01715 13.8114 5.08572C12.2172 5.17143 11.12 5.41143 10.1771 5.78857C9.18285 6.16572 8.36 6.68 7.52 7.52C6.68 8.36 6.16572 9.18285 5.78857 10.1771C5.41143 11.12 5.17143 12.2172 5.08572 13.8114C5.01715 15.4229 5 15.92 5 20C5 24.08 5.01715 24.5772 5.08572 26.1885C5.15428 27.7828 5.41143 28.88 5.78857 29.8228C6.16572 30.8172 6.68 31.64 7.52 32.48C8.36 33.32 9.18285 33.8343 10.1771 34.2115C11.1371 34.5885 12.2172 34.8285 13.8114 34.9143C15.4057 34.9828 15.92 35 20 35C24.08 35 24.5772 34.9828 26.1885 34.9143C27.7828 34.8457 28.88 34.5885 29.8228 34.2115C30.8172 33.8343 31.64 33.32 32.48 32.48C33.32 31.64 33.8343 30.8172 34.2115 29.8228C34.5885 28.8628 34.8285 27.7828 34.9143 26.1885C34.9828 24.5943 35 24.08 35 20C35 15.92 34.9828 15.4229 34.9143 13.8114C34.8457 12.2172 34.5885 11.12 34.2115 10.1771C33.8343 9.18285 33.32 8.36 32.48 7.52C31.64 6.68 30.8172 6.16572 29.8228 5.78857C28.8628 5.41143 27.7828 5.17143 26.1885 5.08572C24.5772 5.01715 24.08 5 20 5ZM20 7.70857C24.0115 7.70857 24.4743 7.72572 26.0685 7.79428C27.5257 7.86285 28.3315 8.10285 28.8457 8.30857C29.5485 8.58285 30.0457 8.90857 30.5772 9.42285C31.1085 9.95428 31.4343 10.4514 31.6915 11.1543C31.8972 11.6857 32.1372 12.4743 32.2057 13.9314C32.2743 15.5086 32.2915 15.9886 32.2915 20C32.2915 24.0115 32.2743 24.4743 32.2057 26.0685C32.1372 27.5257 31.8972 28.3315 31.6915 28.8457C31.4172 29.5485 31.0915 30.0457 30.5772 30.5772C30.0457 31.1085 29.5485 31.4343 28.8457 31.6915C28.3143 31.8972 27.5257 32.1372 26.0685 32.2057C24.4915 32.2743 24.0115 32.2915 20 32.2915C15.9886 32.2915 15.5257 32.2743 13.9314 32.2057C12.4743 32.1372 11.6686 31.8972 11.1543 31.6915C10.4514 31.4172 9.95428 31.0915 9.42285 30.5772C8.89143 30.0457 8.56572 29.5485 8.30857 28.8457C8.10285 28.3143 7.86285 27.5257 7.79428 26.0685C7.72572 24.4915 7.70857 24.0115 7.70857 20C7.70857 15.9886 7.72572 15.5257 7.79428 13.9314C7.86285 12.4743 8.10285 11.6686 8.30857 11.1543C8.58285 10.4514 8.90857 9.95428 9.42285 9.42285C9.95428 8.89143 10.4514 8.56572 11.1543 8.30857C11.6857 8.10285 12.4743 7.86285 13.9314 7.79428C15.5257 7.72572 15.9886 7.70857 20 7.70857Z" fill="#171717"/>
</svg>
