<svg width="32" height="31" viewBox="0 0 32 31" fill="none" xmlns="http://www.w3.org/2000/svg">
<path d="M15.1221 4.24476C15.2855 4.66513 15.4841 4.85527 15.6438 4.90956C15.9531 5.01464 16.1682 5.03144 16.3138 5.00688C16.4428 4.98512 16.5428 4.92759 16.6342 4.80969C16.7357 4.67869 16.8353 4.45971 16.9069 4.10967C16.9779 3.76288 17.0156 3.31728 17.0156 2.76049C17.0156 1.62222 16.8477 0.998116 16.624 0.7117C16.5292 0.590367 16.4261 0.531597 16.2967 0.509786C16.1517 0.485339 15.9385 0.502551 15.6341 0.609982L15.1221 4.24476ZM15.1221 4.24476C14.9651 3.84082 14.8781 3.31304 14.8765 2.76613M15.1221 4.24476L14.8765 2.76613M17.4234 26.5956C17.5605 26.9831 17.5567 29.6035 17.4184 30.0081L17.4234 26.5956ZM17.4234 26.5956C17.1456 25.8105 16.2487 25.3742 15.4909 25.6556L17.4234 26.5956ZM14.8765 2.76613C14.8749 2.21927 14.9588 1.69018 15.1136 1.28385M14.8765 2.76613L15.1136 1.28385M15.1136 1.28385C15.2747 0.861146 15.4729 0.666904 15.634 0.609993L15.1136 1.28385ZM23.2435 7.01229C23.2442 7.01261 23.2586 6.98412 23.3057 6.91812C23.3595 6.84277 23.4354 6.74636 23.5308 6.63309C23.7207 6.40738 23.971 6.13439 24.2352 5.86288C24.4993 5.59154 24.7717 5.32735 25.0047 5.11859C25.1213 5.01405 25.2247 4.92653 25.3098 4.8601C25.3523 4.82695 25.3879 4.80098 25.4164 4.78164C25.4305 4.77206 25.4418 4.76485 25.4505 4.75962L25.4605 4.75378L25.4633 4.7523L25.4638 4.75204L25.4642 4.75183L23.2435 7.01229ZM23.2435 7.01229C22.9723 7.83423 23.7069 8.57323 24.538 8.30008C24.5377 8.29942 24.5663 8.28502 24.6327 8.23789C24.7083 8.18424 24.805 8.10847 24.9186 8.01339C25.1449 7.82393 25.4187 7.5743 25.6909 7.3108C25.963 7.04748 26.2279 6.77583 26.4372 6.54346C26.542 6.42709 26.6298 6.32406 26.6964 6.23913C26.7296 6.19676 26.7556 6.16137 26.775 6.13295C26.7846 6.11889 26.7918 6.10762 26.797 6.09899L26.8028 6.08905C26.8041 6.08686 26.8046 6.0857 26.8047 6.0855C27.223 5.24836 26.3135 4.32981 25.4642 4.75181L23.2435 7.01229ZM23.2435 24.0413C23.0654 23.4993 23.3579 22.919 23.8242 22.7544C24.06 22.6712 24.2886 22.669 24.5487 22.7571C24.5418 22.7547 24.5381 22.7533 24.538 22.7535C24.5377 22.7542 24.5663 22.7686 24.6327 22.8157C24.7083 22.8694 24.805 22.9451 24.9186 23.0402C25.1449 23.2297 25.4187 23.4793 25.6909 23.7428C25.963 24.0061 26.2279 24.2778 26.4372 24.5101C26.542 24.6265 26.6298 24.7295 26.6964 24.8145C26.7296 24.8568 26.7556 24.8922 26.775 24.9206C26.7783 24.9255 26.7813 24.93 26.7841 24.9342C26.7893 24.9421 26.7936 24.9489 26.797 24.9546L26.8028 24.9645C26.8041 24.9667 26.8046 24.9679 26.8047 24.9681C26.8048 24.9681 26.8048 24.9681 26.8048 24.9681C27.223 25.8053 26.3135 26.7238 25.4642 26.3018L23.2435 24.0413ZM23.2435 24.0413C23.2444 24.0414 23.2589 24.0699 23.3057 24.1355C23.3595 24.2108 23.4354 24.3072 23.5308 24.4205C23.7207 24.6462 23.971 24.9192 24.2352 25.1907C24.4993 25.462 24.7717 25.7262 25.0047 25.935C25.1213 26.0395 25.2247 26.1271 25.3098 26.1935C25.3523 26.2266 25.3879 26.2526 25.4164 26.272C25.4305 26.2815 25.4418 26.2887 25.4505 26.294L25.4605 26.2998L25.4633 26.3013C25.4638 26.3016 25.4641 26.3017 25.4642 26.3018L23.2435 24.0413ZM11.2295 10.0649L11.2296 10.0649C12.3398 9.10628 13.3588 8.64377 15.1789 8.31075C18.7626 7.65513 21.528 9.88374 22.6301 12.878C23.7328 15.874 23.1156 19.5015 20.0222 21.5582C16.3145 24.0232 12.4463 22.6328 10.3134 19.8435C8.18088 17.0546 7.8625 12.9719 11.2295 10.0649ZM27.0763 14.1094C25.739 14.598 25.7532 16.4743 27.0977 16.9474L30.5194 16.9425C31.8269 16.4982 31.8269 14.5554 30.5194 14.1111C30.1272 13.9778 27.4399 13.9765 27.0763 14.1094ZM15.6535 30.4454L15.4926 30.9188L15.6535 30.4454C15.4871 30.3889 15.2866 30.1962 15.1232 29.7788C14.9656 29.3764 14.879 28.8506 14.8788 28.3045C14.8786 27.7587 14.9648 27.229 15.1229 26.8196C15.2868 26.3954 15.4906 26.189 15.6649 26.1243C16.1477 25.9451 16.7625 26.2268 16.952 26.7624C16.951 26.7595 16.9511 26.7603 16.9522 26.7654C16.9547 26.7781 16.9625 26.8172 16.9715 26.8947C16.9827 26.9903 16.9925 27.115 17.0006 27.2627C17.0167 27.5573 17.0247 27.9241 17.0241 28.2947C17.0236 28.6653 17.0146 29.0332 16.9976 29.3301C16.9891 29.4789 16.9788 29.6052 16.9673 29.7028C16.9568 29.7921 16.9478 29.8341 16.9456 29.8443C16.9451 29.8466 16.945 29.8472 16.9453 29.8464L16.9452 29.8464C16.7786 30.3343 16.1925 30.6286 15.6535 30.4454ZM7.03706 7.94711C6.32498 7.58348 5.60276 6.90547 5.19302 6.0855C5.07408 5.84745 5.06832 5.5471 5.17348 5.27138C5.27889 4.99499 5.47562 4.79389 5.70022 4.71453C5.96995 4.61927 6.33308 4.66233 6.76396 4.88823C7.18866 5.11088 7.61806 5.48207 7.96794 5.91993C8.3193 6.35964 8.56325 6.83236 8.65341 7.23861C8.74368 7.64536 8.66825 7.90351 8.51256 8.05879C8.40679 8.16427 8.24052 8.23419 7.98237 8.22645C7.7194 8.21856 7.39225 8.12848 7.03706 7.94711ZM24.5487 8.29652L24.5486 8.29653L24.5487 8.29652ZM27.2637 16.4758C26.3593 16.1576 26.3542 14.9069 27.2464 14.5795C27.2443 14.5803 27.2431 14.5808 27.2432 14.5809C27.2434 14.5815 27.2779 14.573 27.3691 14.5626C27.4644 14.5518 27.5898 14.5421 27.7391 14.5341C28.0369 14.5183 28.4098 14.5103 28.7869 14.5104C29.1639 14.5106 29.5387 14.519 29.8403 14.5352C29.9914 14.5433 30.1195 14.5532 30.218 14.5642C30.3017 14.5736 30.3431 14.5818 30.3554 14.5842C30.3596 14.585 30.3605 14.5852 30.3585 14.5845C31.2138 14.8752 31.2138 16.1784 30.3585 16.469C30.3592 16.4688 30.3586 16.469 30.3565 16.4694C30.3466 16.4715 30.3043 16.4807 30.2138 16.4913C30.1158 16.5027 29.9891 16.513 29.8398 16.5214C29.5421 16.5384 29.173 16.5474 28.8014 16.5479C28.4297 16.5485 28.0619 16.5405 27.7663 16.5245C27.6182 16.5164 27.4931 16.5066 27.3971 16.4954C27.3188 16.4864 27.2793 16.4785 27.2667 16.476C27.2617 16.475 27.261 16.4748 27.2637 16.4758ZM5.19302 24.9681L5.19305 24.968C5.19372 24.9668 5.20076 24.9539 5.2193 24.9269C5.23798 24.8998 5.26343 24.8654 5.29628 24.8238C5.36208 24.7404 5.44932 24.6383 5.55381 24.5223C5.76241 24.2908 6.02724 24.018 6.29889 23.7529C6.5707 23.4876 6.84389 23.2352 7.06864 23.0435C7.18145 22.9473 7.27724 22.8706 7.35169 22.8162C7.41253 22.7718 7.44024 22.7566 7.44235 22.7547C8.27858 22.4716 9.02558 23.2188 8.75425 24.0413C8.75359 24.041 8.73918 24.0695 8.69208 24.1355C8.63831 24.2108 8.56235 24.3072 8.46702 24.4205C8.27706 24.6462 8.02675 24.9192 7.76255 25.1907C7.49852 25.462 7.22612 25.7262 6.99312 25.935C6.87643 26.0395 6.77311 26.1271 6.68793 26.1935C6.64543 26.2266 6.60992 26.2526 6.58139 26.272C6.56727 26.2815 6.55595 26.2887 6.54726 26.294L6.53723 26.2998L6.53449 26.3013C6.53395 26.3016 6.53365 26.3017 6.53358 26.3018C6.53357 26.3018 6.53356 26.3018 6.53355 26.3018C5.68429 26.7238 4.77479 25.8053 5.193 24.9681L5.19302 24.9681Z" stroke="#171717"/>
</svg>
